<svg width="246.1" height="135.3" viewBox="0 0 246.1 135.3" xmlns="http://www.w3.org/2000/svg"><g id="svgGroup" stroke-linecap="round" fill-rule="evenodd" font-size="9pt" stroke="#000" stroke-width="0.25mm" fill="#000" style="stroke:#000;stroke-width:0.25mm;fill:#000"><path d="M 168.4 47.5 L 168.3 54 Q 168.3 54.3 168.35 54.4 Q 168.4 54.5 168.3 55 Q 167.7 63.3 167 70.45 Q 166.3 77.6 165.1 84.35 Q 163.9 91.1 161.95 97.9 Q 160 104.7 156.9 112.5 Q 156.2 114.3 154.8 117 Q 153.4 119.7 151.75 122.45 Q 150.1 125.2 148.35 127.6 Q 146.6 130 145.1 131.2 Q 143.1 132.8 140.9 134.05 Q 138.7 135.3 136.3 135.3 Q 133.1 135.3 130.25 133.05 Q 127.4 130.8 125.9 128.1 Q 123.4 124.1 121.95 117.9 Q 120.5 111.7 119.75 104.9 Q 119 98.1 118.85 91.6 Q 118.7 85.1 118.7 80.6 Q 118.7 79.1 118.85 78.4 Q 119 77.7 119 76.3 Q 119 74.3 118.9 71.85 Q 118.8 69.4 119 67.4 Q 119.2 66.3 119.25 65.4 Q 119.3 64.5 119.3 63.1 Q 119.3 62.2 119.4 60.75 Q 119.5 59.3 119.65 57.55 Q 119.8 55.8 119.9 53.95 Q 120 52.1 120 50.5 L 119.5 51.3 Q 119.4 51.6 119.4 51.75 Q 119.4 51.9 119.2 52.3 L 110.9 77.5 Q 110 80.1 108.85 83.75 Q 107.7 87.4 106.4 91.2 Q 105.1 95 103.9 98.45 Q 102.7 101.9 101.7 104 Q 100.8 105.8 100.3 107 Q 99.8 108.2 99.3 108.9 Q 98.8 109.6 98.05 109.85 Q 97.3 110.1 96.1 110.1 Q 95.2 110.1 94.7 108.9 Q 94.2 107.7 93.95 106.15 Q 93.7 104.6 93.65 103.15 Q 93.6 101.7 93.6 101.3 Q 93.7 100.2 93.6 99.85 Q 93.5 99.5 93.7 98.4 Q 94.1 94.8 94.15 91.4 Q 94.2 88 94.7 84.5 Q 95.3 80.6 95.7 77.55 Q 96.1 74.5 96.55 71.65 Q 97 68.8 97.55 65.7 Q 98.1 62.6 98.9 58.6 L 100.4 52.4 L 101.2 49.2 L 108.9 23.5 L 109.5 22 Q 109.7 21.5 110.1 20.7 Q 111.7 16.9 112.45 15.45 Q 113.2 14 114.7 14 Q 115.4 14 116.4 14.3 Q 116.7 15.6 116.75 16.25 Q 116.8 16.9 116.65 17.25 Q 116.5 17.6 116.2 17.8 Q 115.9 18 115.6 18.5 Q 115.1 19 114.2 21.4 Q 113.3 23.8 112.35 26.65 Q 111.4 29.5 110.6 32.15 Q 109.8 34.8 109.5 35.7 Q 108.8 38.3 108.1 40.85 Q 107.4 43.4 106.6 46.1 L 102.9 62.2 Q 102.1 66.7 101.5 70.05 Q 100.9 73.4 100.4 76.55 Q 99.9 79.7 99.45 83.05 Q 99 86.4 98.4 90.9 Q 98 93.8 97.9 96.9 Q 97.8 100 97.8 103.5 L 98.5 102 Q 99.3 100.2 100.25 97.8 Q 101.2 95.4 102.1 92.85 Q 103 90.3 103.85 87.85 Q 104.7 85.4 105.3 83.5 L 118.7 42.5 Q 119.2 40.9 119.85 39.05 Q 120.5 37.2 121.9 36.8 Q 122.2 36.7 122.6 36.7 Q 124 36.7 124.45 38.45 Q 124.9 40.2 125 42.55 Q 125.1 44.9 124.9 47.3 Q 124.7 49.7 124.7 51.1 L 123.7 68.3 Q 123.5 70.3 123.6 72.8 Q 123.7 75.3 123.7 77.4 Q 123.7 78.4 123.6 79.65 Q 123.5 80.9 123.5 81.6 L 123.5 82.95 Q 123.5 83.3 123.45 83.7 Q 123.4 84.1 123.4 84.75 Q 123.4 85.4 123.5 87 Q 123.7 89.1 123.65 92.7 Q 123.6 96.3 123.9 99.2 Q 124.1 101.1 124.2 102.55 Q 124.3 104 124.4 105.5 Q 124.5 107 124.7 108.7 Q 124.9 110.4 125.4 112.7 Q 125.8 114.7 126.55 117.9 Q 127.3 121.1 128.55 124.1 Q 129.8 127.1 131.75 129.25 Q 133.7 131.4 136.5 131.4 Q 140.1 131.4 143.45 127.6 Q 146.8 123.8 149.6 118.55 Q 152.4 113.3 154.45 107.95 Q 156.5 102.6 157.4 99.4 Q 159.3 93.1 160.75 86.2 Q 162.2 79.3 163.1 72.2 Q 164.4 61.3 164.55 49.5 Q 164.7 37.7 163.1 26.8 Q 162.6 23.7 162.05 21.15 Q 161.5 18.6 161 16.25 L 160 11.55 Q 159.5 9.2 159 6.5 Q 158.8 5.1 158.5 3.95 Q 158.2 2.8 158.2 1.4 Q 158.2 0.9 158.9 0.55 Q 159.6 0.2 160.1 0 Q 160.9 0.8 161.75 3.3 Q 162.6 5.8 163.3 8.6 Q 164 11.4 164.5 13.9 Q 165 16.4 165.1 17.3 Q 166.2 23.6 167.15 29.7 Q 168.1 35.8 168.1 42.1 Q 168 43.9 168.2 44.85 Q 168.4 45.8 168.4 47.5 Z M 36.3 26.3 L 34.3 46.8 Q 34.2 47.5 34.25 48.3 Q 34.3 49.1 34.3 49.9 Q 34.3 50.9 34.15 51.2 Q 34 51.5 34 52.6 Q 34 54.8 34.1 57.65 Q 34.2 60.5 34 62.1 Q 33.9 63.2 33.8 67 Q 33.7 70.8 33.7 75.25 L 33.7 83.8 Q 33.7 87.9 33.8 89.5 Q 33.8 90.4 34 91.95 Q 34.2 93.5 34.25 95 Q 34.3 96.5 34 97.6 Q 33.7 98.7 32.7 98.7 Q 31.7 98.7 31.15 98.1 Q 30.6 97.5 30.35 96.6 Q 30.1 95.7 30.05 94.65 Q 30 93.6 30 92.7 Q 29.8 90 29.7 86.55 Q 29.6 83.1 29.6 79.5 Q 29.6 75.9 29.65 72.45 Q 29.7 69 29.7 66.3 L 30 61.6 L 30 57.25 Q 30 54.3 30.1 51.15 Q 30.2 48 30.3 45.25 Q 30.4 42.5 30.6 41.4 Q 30.8 40.4 30.85 39 Q 30.9 37.6 31 36.6 L 31.9 27.3 Q 31.4 27.5 30.1 27.75 Q 28.8 28 28 28.2 Q 23 29.4 18.6 30.75 Q 14.2 32.1 9.5 33.9 Q 8.6 34.3 7.85 34.75 Q 7.1 35.2 6.2 35.6 Q 5.3 36 4.9 36.15 Q 4.5 36.3 4.4 36.5 Q 4.3 36.7 4.2 37.05 Q 4.1 37.4 3.8 38.1 Q 2.8 38.3 2.1 38.3 Q 1.3 38.3 0.65 38 Q 0 37.7 0 36.6 Q 0 35.5 1.75 34.3 Q 3.5 33.1 6.2 31.9 Q 8.9 30.7 12.2 29.6 Q 15.5 28.5 18.7 27.55 Q 21.9 26.6 24.6 25.9 Q 27.3 25.2 28.7 24.8 Q 30.3 24.4 31.1 24.25 Q 31.9 24.1 32.3 23.85 Q 32.7 23.6 32.85 23.05 Q 33 22.5 33.3 21.2 Q 34.1 17.1 35.15 15.55 Q 36.2 14 37.2 14 Q 38 14 38.55 14.85 Q 39.1 15.7 39.1 16.9 Q 39.1 17.8 39 17.65 Q 38.9 17.5 39 18.3 Q 39 18.5 39.05 18.8 Q 39.1 19.1 39.1 19.6 Q 39.1 20.6 38.8 20.75 Q 38.5 20.9 38.1 20.95 Q 37.7 21 37.4 21.3 Q 37.1 21.6 37.1 22.8 Q 38.3 22.8 39.75 22.5 Q 41.2 22.2 42.3 22 Q 46.7 21.2 51.1 20.55 Q 55.5 19.9 60.1 19.9 Q 61.9 19.9 62.95 20.5 Q 64 21.1 64.3 21.85 Q 64.6 22.6 64.1 23.25 Q 63.6 23.9 62.2 23.9 Q 62 23.1 61.95 23.15 Q 61.9 23.2 61 23 Q 60.6 22.9 59.4 22.9 Q 57.3 22.9 53.8 23.35 Q 50.3 23.8 46.7 24.4 Q 43.1 25 40.15 25.55 Q 37.2 26.1 36.3 26.3 Z M 224.4 73.5 Q 224.4 69.8 224.75 65.55 Q 225.1 61.3 225.7 56.95 Q 226.3 52.6 227.1 48.45 Q 227.9 44.3 228.8 40.9 Q 229.1 39.8 229.5 38.45 Q 229.9 37.1 230.4 35.9 Q 230.9 34.7 231.55 33.85 Q 232.2 33 233.2 33 Q 234.4 33 234.7 33.9 Q 235 34.8 234.75 36 Q 234.5 37.2 234.1 38.3 Q 233.7 39.4 233.6 39.8 Q 232.9 42.3 232.05 46.4 Q 231.2 50.5 230.35 55.3 Q 229.5 60.1 228.9 65.25 Q 228.3 70.4 228.1 75.1 Q 227.9 79.8 228.25 83.65 Q 228.6 87.5 229.7 89.6 Q 231.4 88.7 232.5 86.9 Q 233.6 85.1 234.4 83.4 Q 236.7 79 238.9 74.1 Q 241.1 69.2 243.5 64.9 Q 244.3 63.3 245.2 63.3 Q 245.6 63.3 245.85 63.65 Q 246.1 64 246.1 64.4 Q 246.1 64.6 245.6 65.65 Q 245.1 66.7 244.5 67.95 Q 243.9 69.2 243.3 70.3 Q 242.7 71.4 242.5 71.8 Q 241.7 73.4 240.8 75.45 L 239 79.55 Q 238.1 81.6 237.2 83.5 Q 236.3 85.4 235.5 86.8 Q 235.1 87.4 234.55 88.35 Q 234 89.3 233.3 90.2 Q 232.6 91.1 231.75 91.7 Q 230.9 92.3 230 92.3 Q 228 92.3 226.85 90.3 Q 225.7 88.3 225.15 85.35 Q 224.6 82.4 224.5 79.15 Q 224.4 75.9 224.4 73.5 Z M 58.1 71.1 L 67.4 64.6 Q 69.7 63 71.3 63 Q 72.5 63 72.3 64 Q 72.1 65 70.4 66 L 63.6 70.7 Q 63.2 70.9 61.85 71.85 Q 60.5 72.8 59.05 73.95 Q 57.6 75.1 56.45 76.1 Q 55.3 77.1 55.2 77.4 Q 55.1 77.9 55.55 79.3 Q 56 80.7 56.1 82.95 Q 56.2 85.2 55.45 88.45 Q 54.7 91.7 52.2 96 Q 50 99.7 47.4 101.45 Q 44.8 103.2 42.5 103.2 Q 40.4 103.2 39.05 101.8 Q 37.7 100.4 37.7 97.7 Q 37.7 94.3 39.45 91.1 Q 41.2 87.9 43.35 85.2 Q 45.5 82.5 47.5 80.55 Q 49.5 78.6 50.1 77.7 Q 48.9 75.6 47.2 74.05 Q 45.5 72.5 43.9 71.15 Q 42.3 69.8 41.15 68.4 Q 40 67 40 65 Q 40 63.1 40.85 61.4 Q 41.7 59.7 42.95 58.45 Q 44.2 57.2 45.6 56.5 Q 47 55.8 48.1 55.8 Q 49.2 55.8 49.75 56.6 Q 50.3 57.4 49.8 59.3 L 48.45 59.6 Q 48 59.7 47.7 59.8 Q 47.4 59.9 47.1 60.2 L 46.2 61.1 Q 44.2 63.3 44.4 64.6 Q 44.6 65.9 46 67.15 Q 47.4 68.4 49.55 70.05 Q 51.7 71.7 53.6 74.6 Q 55.8 73.1 58.1 71.1 Z M 178 71.2 L 178.8 70 Q 179.6 68.8 180.65 66.85 Q 181.7 64.9 182.75 63.05 Q 183.8 61.2 184.75 59.8 Q 185.7 58.4 186.2 58.4 Q 187.5 58.4 187.95 59.15 Q 188.4 59.9 188.5 61.1 Q 188.6 62.3 188.6 63.8 Q 188.6 65.3 188.9 66.7 Q 189.5 69.4 190.75 70.65 Q 192 71.9 193.6 71.9 Q 196.4 71.9 199.8 68.5 Q 201.2 67.2 201.75 66.35 Q 202.3 65.5 203.4 64.4 Q 204.1 63.4 205.2 63.4 Q 205.8 63.4 206.1 63.85 Q 206.4 64.3 206.2 65.25 Q 206 66.2 205.05 67.6 Q 204.1 69 202.2 70.8 L 199.2 73.2 Q 196.3 75.2 193.6 75.2 Q 191.7 75.2 190.2 74.3 Q 188.7 73.4 187.65 72.05 Q 186.6 70.7 186 69 Q 185.4 67.3 185.4 65.7 Q 184.7 66.2 183.8 67.95 Q 182.9 69.7 181.85 71.55 Q 180.8 73.4 179.7 74.9 Q 178.6 76.4 177.5 76.4 Q 174.7 76.4 174.1 75.1 Q 173.5 73.8 173.5 71.1 Q 173.5 69 174.55 65.85 Q 175.6 62.7 177.35 59.75 Q 179.1 56.8 181.45 54.75 Q 183.8 52.7 186.4 52.7 Q 188.2 52.7 189.5 53.6 Q 190.8 54.5 191.5 55.55 Q 192.2 56.6 192.15 57.5 Q 192.1 58.4 191.1 58.4 Q 190 58.4 189 57.25 Q 188 56.1 186.6 56.1 Q 185.5 56.1 183.95 57.4 Q 182.4 58.7 180.2 62.5 Q 179.2 64.1 178.35 66.65 Q 177.5 69.2 177.5 71.7 Q 177.7 71.5 177.65 71.6 Q 177.6 71.7 178 71.2 Z M 13.6 81.6 Q 11.6 81.6 10.05 80.3 Q 8.5 79 7.7 77.6 Q 5.9 74.2 5.65 69.55 Q 5.4 64.9 6.2 61.1 Q 6.3 60.3 6.55 59.2 Q 6.8 58.1 7.2 57.05 Q 7.6 56 8.2 55.25 Q 8.8 54.5 9.5 54.5 Q 11.2 54.5 11.5 55.35 Q 11.8 56.2 11.5 58 Q 11.2 59.8 10.65 62.6 Q 10.1 65.4 10.1 69.2 Q 10.1 70.3 10.3 71.85 Q 10.5 73.4 10.95 74.8 Q 11.4 76.2 12.15 77.15 Q 12.9 78.1 13.9 78.1 Q 15.1 78.1 16.6 77.25 Q 18.1 76.4 19.5 75.2 Q 20.9 74 22.05 72.8 Q 23.2 71.6 23.8 70.9 Q 24 70.7 24.9 69.5 Q 25.8 68.3 27 66.9 Q 28.2 65.5 29.45 64.4 Q 30.7 63.3 31.4 63.3 Q 32.1 63.3 32.1 64.5 Q 32.1 65.2 31.15 66.65 Q 30.2 68.1 28.9 69.7 Q 27.6 71.3 26.35 72.7 Q 25.1 74.1 24.5 74.7 Q 23.6 75.6 22.45 76.8 Q 21.3 78 19.9 79.05 Q 18.5 80.1 16.95 80.85 Q 15.4 81.6 13.6 81.6 Z M 202.6 65.5 Q 202.6 63.6 203.6 61.45 Q 204.6 59.3 206.1 57.45 Q 207.6 55.6 209.5 54.35 Q 211.4 53.1 213.2 53.1 Q 216.5 53.1 216.65 55.6 Q 216.8 58.1 214.5 61 Q 213.3 62.4 210.9 64.05 Q 208.5 65.7 206.2 65.9 Q 206.2 67.5 206.3 68.75 Q 206.4 70 207.7 71.3 Q 209 72.6 211 72.6 Q 212.3 72.6 213.7 72.1 Q 215.1 71.6 216.4 70.95 Q 217.7 70.3 218.85 69.55 Q 220 68.8 220.7 68.2 Q 221.3 67.7 221.65 67.4 Q 222 67.1 222.5 66.7 Q 224 65.5 224.65 64.8 Q 225.3 64.1 225.65 63.7 Q 226 63.3 226.45 63.2 Q 226.9 63.1 228 63.1 Q 228.2 64.2 228.15 64.6 Q 228.1 65 227.4 65.8 Q 226 67.2 224.1 68.9 Q 222.2 70.6 219.95 72.1 Q 217.7 73.6 215.35 74.6 Q 213 75.6 210.7 75.6 Q 207.3 75.6 204.9 73.2 Q 203.1 71.4 202.85 69.5 Q 202.6 67.6 202.6 65.5 Z M 40.9 97.7 Q 40.9 99.8 42.2 99.8 Q 42.9 99.8 43.7 99.35 Q 44.5 98.9 45 98.4 Q 47 96.9 48.55 93.85 Q 50.1 90.8 50.8 88.3 Q 51.3 86.6 51.35 84.85 Q 51.4 83.1 51.4 81 Q 50.2 81.7 48.65 83.45 Q 47.1 85.2 46.2 86.3 Q 44.4 88.5 42.65 91.6 Q 40.9 94.7 40.9 97.7 Z M 10.4 41.9 Q 10.4 40.2 11.3 38.95 Q 12.2 37.7 13.3 37.7 Q 14.5 37.7 15.3 39.2 Q 16.7 42 15.65 43.55 Q 14.6 45.1 13.1 45.1 Q 12 45.1 11.2 44.35 Q 10.4 43.6 10.4 41.9 Z M 207.1 63.1 Q 208 62.6 209.15 61.9 Q 210.3 61.2 211.3 60.35 Q 212.3 59.5 213 58.45 Q 213.7 57.4 213.8 56.2 Q 212.8 56.4 211.7 57.15 Q 210.6 57.9 209.7 58.9 Q 208.8 59.9 208.1 61.05 Q 207.4 62.2 207.1 63.1 Z" vector-effect="non-scaling-stroke"/></g></svg>